<svg width="215" height="306" viewBox="0 0 215 306" fill="none" xmlns="http://www.w3.org/2000/svg">
<g filter="url(#filter0_d_1_51)">
<path d="M2.99542 6V3H5.99542V0H8.99542V3V6H5.99542V9H2.99542V6Z" fill="#1E3445"/>
<path d="M2.99542 6V9H1.62125e-05V6H2.99542Z" fill="#1E3445"/>
<rect x="8.99539" width="194.009" height="3" fill="#1E3445"/>
<path d="M209.005 6V3H206.005V0H203.005V3V6H206.005V9H209.005V6Z" fill="#1E3445"/>
<path d="M209.005 6V9H212V6H209.005Z" fill="#1E3445"/>
<rect y="9" width="3" height="285" fill="#1E3445"/>
<rect width="206" height="297" transform="translate(3 3)" fill="white"/>
<rect x="209" y="9" width="3" height="285" fill="#1E3445"/>
<path d="M209 3V6V9H206V6H203V3H206H209Z" fill="#1E3445"/>
<path d="M3 3V6V9H6V6H9V3H6H3Z" fill="#1E3445"/>
<path d="M2.99539 297V300H5.99539V303H8.99539V300V297H5.99539V294H2.99539V297Z" fill="#1E3445"/>
<path d="M2.99539 297V294H-1.43051e-05V297H2.99539Z" fill="#1E3445"/>
<rect width="194.009" height="3" transform="matrix(1 0 0 -1 8.99539 303)" fill="#1E3445"/>
<path d="M209.005 297V300H206.005V303H203.005V300V297H206.005V294H209.005V297Z" fill="#1E3445"/>
<path d="M209.005 297V294H212V297H209.005Z" fill="#1E3445"/>
</g>
<defs>
<filter id="filter0_d_1_51" x="0" y="0" width="215" height="306" filterUnits="userSpaceOnUse" color-interpolation-filters="sRGB">
<feFlood flood-opacity="0" result="BackgroundImageFix"/>
<feColorMatrix in="SourceAlpha" type="matrix" values="0 0 0 0 0 0 0 0 0 0 0 0 0 0 0 0 0 0 127 0" result="hardAlpha"/>
<feOffset dx="3" dy="3"/>
<feComposite in2="hardAlpha" operator="out"/>
<feColorMatrix type="matrix" values="0 0 0 0 0.117647 0 0 0 0 0.203922 0 0 0 0 0.270588 0 0 0 1 0"/>
<feBlend mode="normal" in2="BackgroundImageFix" result="effect1_dropShadow_1_51"/>
<feBlend mode="normal" in="SourceGraphic" in2="effect1_dropShadow_1_51" result="shape"/>
</filter>
</defs>
</svg>
